<svg xmlns="http://www.w3.org/2000/svg" width="78.225" height="73.946" viewBox="0 0 78.225 73.946">
  <g id="Grupo_1203520" data-name="Grupo 1203520" transform="translate(0.5 0.5)">
    <path id="Trazado_1241371" data-name="Trazado 1241371" d="M484.551,199.89h54.907a7.133,7.133,0,0,1,7.131,7.131v32.8a7.133,7.133,0,0,1-7.131,7.131H510.592l-16.771,19.253,1.968-19.253H484.551a7.133,7.133,0,0,1-7.131-7.131v-32.8A7.133,7.133,0,0,1,484.551,199.89Z" transform="translate(-468.864 -192.76)" fill="#5825b3" opacity="0.3"/>
    <g id="Grupo_1200392" data-name="Grupo 1200392" transform="translate(0)">
      <path id="Trazado_1241430" data-name="Trazado 1241430" d="M490.551,194.89h54.907a7.133,7.133,0,0,1,7.131,7.131v32.8a7.133,7.133,0,0,1-7.131,7.131H516.592l-16.772,19.253,1.968-19.253H490.551a7.133,7.133,0,0,1-7.131-7.131v-32.8A7.133,7.133,0,0,1,490.551,194.89Z" transform="translate(-483.42 -194.89)" fill="#fff" stroke="#20154c" stroke-linecap="round" stroke-linejoin="round" stroke-width="1"/>
      <g id="Grupo_1200391" data-name="Grupo 1200391" transform="translate(15.915 11.837)">
        <path id="Trazado_1241431" data-name="Trazado 1241431" d="M517.587,203.19c4.692,0,7.972,2.539,7.972,7.231,0,4.364-3.138,6.717-7.573,6.76l-.171,2.538h-5.063l-.171-6.289h2.025c3.18,0,5.377-.57,5.334-3.038a2.277,2.277,0,0,0-2.439-2.467,2.361,2.361,0,0,0-2.567,2.567H509.5c-.1-4.05,2.738-7.3,8.072-7.3Zm-2.239,25.3a3.2,3.2,0,0,1-3.451-3.109,3.244,3.244,0,0,1,3.451-3.18,3.155,3.155,0,1,1,0,6.289Z" transform="translate(-488.751 -203.19)" fill="#d1026e"/>
        <path id="Trazado_1241432" data-name="Trazado 1241432" d="M502.922,228.49c-4.692,0-7.972-2.539-7.972-7.231,0-4.364,3.138-6.717,7.573-6.76l.171-2.539h5.063l.171,6.289H505.9c-3.18,0-5.377.57-5.334,3.038a2.277,2.277,0,0,0,2.439,2.467,2.361,2.361,0,0,0,2.567-2.567h5.434c.1,4.05-2.738,7.3-8.072,7.3Zm2.225-25.3A3.2,3.2,0,0,1,508.6,206.3a3.244,3.244,0,0,1-3.451,3.18,3.155,3.155,0,1,1,0-6.289Z" transform="translate(-494.951 -203.19)" fill="#d1026e"/>
      </g>
    </g>
  </g>
</svg>
