<svg xmlns="http://www.w3.org/2000/svg" width="124.617" height="114.093" viewBox="0 0 124.617 114.093">
  <g id="Grupo_1203518" data-name="Grupo 1203518" transform="translate(0 0.5)">
    <path id="Trazado_1241370" data-name="Trazado 1241370" d="M561.48,220.39h100.3a6.561,6.561,0,0,1,6.56,6.56V279.4a6.561,6.561,0,0,1-6.56,6.56H618.27L635.669,324l-32.331-38.035H561.48a6.561,6.561,0,0,1-6.56-6.56V226.95a6.561,6.561,0,0,1,6.56-6.56Z" transform="translate(-554.92 -210.407)" fill="#d1026e" opacity="0.2"/>
    <g id="Grupo_1200393" data-name="Grupo 1200393" transform="translate(10.695)">
      <path id="Trazado_1241433" data-name="Trazado 1241433" d="M553.98,213.39h100.3a6.561,6.561,0,0,1,6.56,6.56V272.4a6.561,6.561,0,0,1-6.56,6.56H610.77L628.169,317l-32.331-38.035H553.98a6.561,6.561,0,0,1-6.56-6.56V219.95a6.561,6.561,0,0,1,6.56-6.56Z" transform="translate(-547.42 -213.39)" fill="#fff" stroke="#20154c" stroke-linecap="round" stroke-linejoin="round" stroke-width="1"/>
      <text id="_Te_puedo_ayudar_" data-name="¿Te puedo
ayudar?" transform="translate(7.211 14.805)" fill="#20154c" font-size="14" font-family="SegoeUI-Bold, Segoe UI" font-weight="700" letter-spacing="0.1em"><tspan x="-38.806" y="15">¿Te puedo</tspan><tspan x="-29.9" y="32">ayudar?</tspan></text>
    </g>
  </g>
</svg>
